<mxfile host="app.diagrams.net" modified="2022-07-20T23:50:39.482Z" agent="5.0 (Windows NT 10.0; Win64; x64) AppleWebKit/537.36 (KHTML, like Gecko) Chrome/103.0.0.0 Safari/537.36" etag="5_xrbgI118ToBQptddew" version="16.2.4" type="github" pages="2">
  <diagram id="Io1OysxuFfzLsHuTREHu" name="Page-1">
    <mxGraphModel dx="677" dy="363" grid="1" gridSize="10" guides="1" tooltips="1" connect="1" arrows="1" fold="1" page="1" pageScale="1" pageWidth="850" pageHeight="1100" math="0" shadow="0">
      <root>
        <mxCell id="0" />
        <mxCell id="1" parent="0" />
        <mxCell id="HsYyyXKmQdbD6lfOeSJs-3" value="" style="group;fillColor=#fff2cc;strokeColor=#d6b656;" vertex="1" connectable="0" parent="1">
          <mxGeometry x="110" y="240" width="70" height="174.5" as="geometry" />
        </mxCell>
        <mxCell id="HsYyyXKmQdbD6lfOeSJs-1" value="" style="rounded=0;whiteSpace=wrap;html=1;fillColor=#fff2cc;strokeColor=#d6b656;" vertex="1" parent="HsYyyXKmQdbD6lfOeSJs-3">
          <mxGeometry width="70" height="174.5" as="geometry" />
        </mxCell>
        <mxCell id="HsYyyXKmQdbD6lfOeSJs-2" value="User browser&lt;br&gt;(Execute)&amp;nbsp;" style="text;html=1;strokeColor=none;fillColor=none;align=center;verticalAlign=middle;whiteSpace=wrap;rounded=0;fontSize=9;" vertex="1" parent="HsYyyXKmQdbD6lfOeSJs-3">
          <mxGeometry x="8.75" y="43.625" width="52.5" height="87.25" as="geometry" />
        </mxCell>
        <mxCell id="HsYyyXKmQdbD6lfOeSJs-4" value="" style="rounded=0;whiteSpace=wrap;html=1;fontSize=9;fillColor=#dae8fc;strokeColor=#6c8ebf;" vertex="1" parent="1">
          <mxGeometry x="290" y="210" width="280" height="221" as="geometry" />
        </mxCell>
        <mxCell id="HsYyyXKmQdbD6lfOeSJs-5" value="VFM Server" style="text;html=1;strokeColor=none;fillColor=none;align=center;verticalAlign=middle;whiteSpace=wrap;rounded=0;fontSize=9;" vertex="1" parent="1">
          <mxGeometry x="390" y="210" width="60" height="30" as="geometry" />
        </mxCell>
        <mxCell id="HsYyyXKmQdbD6lfOeSJs-6" value="" style="endArrow=classic;html=1;rounded=0;fontSize=9;entryX=-0.003;entryY=0.041;entryDx=0;entryDy=0;entryPerimeter=0;" edge="1" parent="1" target="HsYyyXKmQdbD6lfOeSJs-10">
          <mxGeometry width="50" height="50" relative="1" as="geometry">
            <mxPoint x="180" y="261" as="sourcePoint" />
            <mxPoint x="310" y="237" as="targetPoint" />
          </mxGeometry>
        </mxCell>
        <mxCell id="HsYyyXKmQdbD6lfOeSJs-41" style="edgeStyle=orthogonalEdgeStyle;rounded=0;orthogonalLoop=1;jettySize=auto;html=1;exitX=1;exitY=1;exitDx=0;exitDy=0;entryX=0;entryY=1;entryDx=0;entryDy=-15;entryPerimeter=0;fontSize=9;dashed=1;" edge="1" parent="1" source="HsYyyXKmQdbD6lfOeSJs-9" target="HsYyyXKmQdbD6lfOeSJs-11">
          <mxGeometry relative="1" as="geometry">
            <Array as="points">
              <mxPoint x="520" y="375" />
            </Array>
          </mxGeometry>
        </mxCell>
        <mxCell id="HsYyyXKmQdbD6lfOeSJs-9" value="Queue" style="rounded=0;whiteSpace=wrap;html=1;fontSize=9;fillColor=#f8cecc;strokeColor=#b85450;" vertex="1" parent="1">
          <mxGeometry x="450" y="255.5" width="70" height="130" as="geometry" />
        </mxCell>
        <mxCell id="HsYyyXKmQdbD6lfOeSJs-25" style="edgeStyle=orthogonalEdgeStyle;rounded=0;orthogonalLoop=1;jettySize=auto;html=1;exitX=0;exitY=0.75;exitDx=0;exitDy=0;entryX=0.5;entryY=0;entryDx=0;entryDy=0;fontSize=9;" edge="1" parent="1" source="HsYyyXKmQdbD6lfOeSJs-10" target="HsYyyXKmQdbD6lfOeSJs-24">
          <mxGeometry relative="1" as="geometry" />
        </mxCell>
        <mxCell id="HsYyyXKmQdbD6lfOeSJs-34" style="edgeStyle=orthogonalEdgeStyle;rounded=0;orthogonalLoop=1;jettySize=auto;html=1;entryX=1;entryY=0.375;entryDx=0;entryDy=0;entryPerimeter=0;fontSize=9;exitX=0.25;exitY=1;exitDx=0;exitDy=0;dashed=1;" edge="1" parent="1" source="HsYyyXKmQdbD6lfOeSJs-9" target="HsYyyXKmQdbD6lfOeSJs-24">
          <mxGeometry relative="1" as="geometry" />
        </mxCell>
        <mxCell id="HsYyyXKmQdbD6lfOeSJs-10" value="VFM Backend&amp;nbsp;" style="rounded=0;whiteSpace=wrap;html=1;fontSize=9;fillColor=#e1d5e7;strokeColor=#9673a6;" vertex="1" parent="1">
          <mxGeometry x="310" y="255.5" width="70" height="130" as="geometry" />
        </mxCell>
        <mxCell id="HsYyyXKmQdbD6lfOeSJs-11" value="DB" style="shape=cylinder3;whiteSpace=wrap;html=1;boundedLbl=1;backgroundOutline=1;size=15;fontSize=9;fillColor=#fff2cc;strokeColor=#d6b656;" vertex="1" parent="1">
          <mxGeometry x="620" y="270.5" width="60" height="119.5" as="geometry" />
        </mxCell>
        <mxCell id="HsYyyXKmQdbD6lfOeSJs-12" value="Execute test case" style="text;html=1;strokeColor=none;fillColor=none;align=center;verticalAlign=middle;whiteSpace=wrap;rounded=0;fontSize=9;" vertex="1" parent="1">
          <mxGeometry x="200" y="255.5" width="60" height="10" as="geometry" />
        </mxCell>
        <mxCell id="HsYyyXKmQdbD6lfOeSJs-13" value="" style="endArrow=classic;html=1;rounded=0;fontSize=9;exitX=0;exitY=0.75;exitDx=0;exitDy=0;entryX=0.05;entryY=0.07;entryDx=0;entryDy=0;entryPerimeter=0;" edge="1" parent="1" source="HsYyyXKmQdbD6lfOeSJs-18" target="HsYyyXKmQdbD6lfOeSJs-11">
          <mxGeometry width="50" height="50" relative="1" as="geometry">
            <mxPoint x="420" y="273" as="sourcePoint" />
            <mxPoint x="620" y="270" as="targetPoint" />
          </mxGeometry>
        </mxCell>
        <mxCell id="HsYyyXKmQdbD6lfOeSJs-15" value="Add to queue" style="text;html=1;strokeColor=none;fillColor=none;align=center;verticalAlign=middle;whiteSpace=wrap;rounded=0;fontSize=9;" vertex="1" parent="1">
          <mxGeometry x="460" y="215" width="50" height="20" as="geometry" />
        </mxCell>
        <mxCell id="HsYyyXKmQdbD6lfOeSJs-17" value="" style="endArrow=classic;html=1;rounded=0;fontSize=9;entryX=0;entryY=0;entryDx=0;entryDy=37.375;entryPerimeter=0;dashed=1;" edge="1" parent="1" target="HsYyyXKmQdbD6lfOeSJs-11">
          <mxGeometry width="50" height="50" relative="1" as="geometry">
            <mxPoint x="520" y="307" as="sourcePoint" />
            <mxPoint x="410" y="300" as="targetPoint" />
          </mxGeometry>
        </mxCell>
        <mxCell id="HsYyyXKmQdbD6lfOeSJs-18" value="Enter in DB" style="text;html=1;strokeColor=none;fillColor=none;align=center;verticalAlign=middle;whiteSpace=wrap;rounded=0;fontSize=9;" vertex="1" parent="1">
          <mxGeometry x="380" y="255.5" width="60" height="30" as="geometry" />
        </mxCell>
        <mxCell id="HsYyyXKmQdbD6lfOeSJs-21" value="" style="endArrow=classic;html=1;rounded=0;fontSize=9;entryX=-0.029;entryY=0.576;entryDx=0;entryDy=0;entryPerimeter=0;dashed=1;" edge="1" parent="1" target="HsYyyXKmQdbD6lfOeSJs-11">
          <mxGeometry width="50" height="50" relative="1" as="geometry">
            <mxPoint x="520" y="340" as="sourcePoint" />
            <mxPoint x="410" y="300" as="targetPoint" />
          </mxGeometry>
        </mxCell>
        <mxCell id="HsYyyXKmQdbD6lfOeSJs-22" value="Get Queued items" style="text;html=1;strokeColor=none;fillColor=none;align=center;verticalAlign=middle;whiteSpace=wrap;rounded=0;fontSize=9;" vertex="1" parent="1">
          <mxGeometry x="530" y="330" width="80" height="30" as="geometry" />
        </mxCell>
        <mxCell id="HsYyyXKmQdbD6lfOeSJs-23" value="" style="endArrow=classic;html=1;rounded=0;fontSize=9;entryX=1;entryY=0.75;entryDx=0;entryDy=0;exitX=0;exitY=0.75;exitDx=0;exitDy=0;dashed=1;" edge="1" parent="1" source="HsYyyXKmQdbD6lfOeSJs-9" target="HsYyyXKmQdbD6lfOeSJs-10">
          <mxGeometry width="50" height="50" relative="1" as="geometry">
            <mxPoint x="360" y="350" as="sourcePoint" />
            <mxPoint x="410" y="300" as="targetPoint" />
          </mxGeometry>
        </mxCell>
        <mxCell id="HsYyyXKmQdbD6lfOeSJs-29" style="edgeStyle=orthogonalEdgeStyle;rounded=0;orthogonalLoop=1;jettySize=auto;html=1;exitX=0.75;exitY=0;exitDx=0;exitDy=0;entryX=0.009;entryY=0.902;entryDx=0;entryDy=0;entryPerimeter=0;fontSize=9;" edge="1" parent="1" source="HsYyyXKmQdbD6lfOeSJs-24" target="HsYyyXKmQdbD6lfOeSJs-10">
          <mxGeometry relative="1" as="geometry" />
        </mxCell>
        <mxCell id="HsYyyXKmQdbD6lfOeSJs-24" value="Jenkins" style="rounded=0;whiteSpace=wrap;html=1;fontSize=9;fillColor=#f8cecc;strokeColor=#b85450;" vertex="1" parent="1">
          <mxGeometry x="190" y="450" width="80" height="80" as="geometry" />
        </mxCell>
        <mxCell id="HsYyyXKmQdbD6lfOeSJs-26" value="trigger" style="text;html=1;strokeColor=none;fillColor=none;align=center;verticalAlign=middle;whiteSpace=wrap;rounded=0;fontSize=9;" vertex="1" parent="1">
          <mxGeometry x="390" y="337.5" width="55" height="15" as="geometry" />
        </mxCell>
        <mxCell id="HsYyyXKmQdbD6lfOeSJs-27" value="trigger" style="text;html=1;strokeColor=none;fillColor=none;align=center;verticalAlign=middle;whiteSpace=wrap;rounded=0;fontSize=9;" vertex="1" parent="1">
          <mxGeometry x="230" y="323" width="60" height="30" as="geometry" />
        </mxCell>
        <mxCell id="HsYyyXKmQdbD6lfOeSJs-30" value="queue number" style="text;html=1;strokeColor=none;fillColor=none;align=center;verticalAlign=middle;whiteSpace=wrap;rounded=0;fontSize=9;" vertex="1" parent="1">
          <mxGeometry x="250" y="355.5" width="60" height="30" as="geometry" />
        </mxCell>
        <mxCell id="HsYyyXKmQdbD6lfOeSJs-35" value="Do we have a job number?" style="text;html=1;strokeColor=none;fillColor=none;align=center;verticalAlign=middle;whiteSpace=wrap;rounded=0;fontSize=9;" vertex="1" parent="1">
          <mxGeometry x="280" y="450" width="60" height="30" as="geometry" />
        </mxCell>
        <mxCell id="HsYyyXKmQdbD6lfOeSJs-36" value="" style="endArrow=classic;html=1;rounded=0;fontSize=9;exitX=1.002;exitY=0.623;exitDx=0;exitDy=0;exitPerimeter=0;entryX=0.56;entryY=1.001;entryDx=0;entryDy=0;entryPerimeter=0;dashed=1;" edge="1" parent="1" source="HsYyyXKmQdbD6lfOeSJs-24" target="HsYyyXKmQdbD6lfOeSJs-9">
          <mxGeometry width="50" height="50" relative="1" as="geometry">
            <mxPoint x="270" y="550" as="sourcePoint" />
            <mxPoint x="320" y="500" as="targetPoint" />
            <Array as="points">
              <mxPoint x="370" y="500" />
              <mxPoint x="489" y="500" />
            </Array>
          </mxGeometry>
        </mxCell>
        <mxCell id="HsYyyXKmQdbD6lfOeSJs-39" value="Yes we do!" style="text;html=1;strokeColor=none;fillColor=none;align=center;verticalAlign=middle;whiteSpace=wrap;rounded=0;fontSize=9;" vertex="1" parent="1">
          <mxGeometry x="290" y="490" width="60" height="30" as="geometry" />
        </mxCell>
        <mxCell id="HsYyyXKmQdbD6lfOeSJs-44" value="Add job number" style="text;html=1;strokeColor=none;fillColor=none;align=center;verticalAlign=middle;whiteSpace=wrap;rounded=0;fontSize=9;" vertex="1" parent="1">
          <mxGeometry x="550" y="360" width="60" height="30" as="geometry" />
        </mxCell>
      </root>
    </mxGraphModel>
  </diagram>
  <diagram id="eixOnjtvin9wSLg5KeC3" name="Page-2">
    <mxGraphModel dx="813" dy="435" grid="1" gridSize="10" guides="1" tooltips="1" connect="1" arrows="1" fold="1" page="1" pageScale="1" pageWidth="850" pageHeight="1100" math="0" shadow="0">
      <root>
        <mxCell id="WC2uHMEfxPTT_iZBBeDT-0" />
        <mxCell id="WC2uHMEfxPTT_iZBBeDT-1" parent="WC2uHMEfxPTT_iZBBeDT-0" />
        <mxCell id="WC2uHMEfxPTT_iZBBeDT-2" value="" style="rounded=0;whiteSpace=wrap;html=1;fillColor=#fff2cc;strokeColor=#d6b656;" vertex="1" parent="WC2uHMEfxPTT_iZBBeDT-1">
          <mxGeometry x="110" y="240" width="70" height="174.5" as="geometry" />
        </mxCell>
        <mxCell id="WC2uHMEfxPTT_iZBBeDT-3" value="User browser&lt;br&gt;(Status)&amp;nbsp;" style="text;html=1;strokeColor=none;fillColor=none;align=center;verticalAlign=middle;whiteSpace=wrap;rounded=0;fontSize=9;" vertex="1" parent="WC2uHMEfxPTT_iZBBeDT-1">
          <mxGeometry x="118.75" y="283.625" width="52.5" height="87.25" as="geometry" />
        </mxCell>
        <mxCell id="WC2uHMEfxPTT_iZBBeDT-4" value="" style="rounded=0;whiteSpace=wrap;html=1;fontSize=9;fillColor=#dae8fc;strokeColor=#6c8ebf;" vertex="1" parent="WC2uHMEfxPTT_iZBBeDT-1">
          <mxGeometry x="290" y="210" width="280" height="221" as="geometry" />
        </mxCell>
        <mxCell id="WC2uHMEfxPTT_iZBBeDT-5" value="Queue" style="rounded=0;whiteSpace=wrap;html=1;fontSize=9;fillColor=#f8cecc;strokeColor=#b85450;" vertex="1" parent="WC2uHMEfxPTT_iZBBeDT-1">
          <mxGeometry x="450" y="255.5" width="70" height="130" as="geometry" />
        </mxCell>
        <mxCell id="WC2uHMEfxPTT_iZBBeDT-16" style="edgeStyle=orthogonalEdgeStyle;rounded=0;orthogonalLoop=1;jettySize=auto;html=1;exitX=0;exitY=0.75;exitDx=0;exitDy=0;entryX=0.5;entryY=0;entryDx=0;entryDy=0;fontSize=9;" edge="1" parent="WC2uHMEfxPTT_iZBBeDT-1" source="WC2uHMEfxPTT_iZBBeDT-6" target="WC2uHMEfxPTT_iZBBeDT-8">
          <mxGeometry relative="1" as="geometry" />
        </mxCell>
        <mxCell id="WC2uHMEfxPTT_iZBBeDT-18" style="edgeStyle=orthogonalEdgeStyle;rounded=0;orthogonalLoop=1;jettySize=auto;html=1;exitX=0.75;exitY=1;exitDx=0;exitDy=0;entryX=0.5;entryY=1;entryDx=0;entryDy=0;entryPerimeter=0;fontSize=9;" edge="1" parent="WC2uHMEfxPTT_iZBBeDT-1" source="WC2uHMEfxPTT_iZBBeDT-6" target="WC2uHMEfxPTT_iZBBeDT-7">
          <mxGeometry relative="1" as="geometry" />
        </mxCell>
        <mxCell id="WC2uHMEfxPTT_iZBBeDT-26" style="edgeStyle=orthogonalEdgeStyle;rounded=0;orthogonalLoop=1;jettySize=auto;html=1;entryX=-0.017;entryY=0.47;entryDx=0;entryDy=0;entryPerimeter=0;fontSize=9;exitX=0.986;exitY=0.552;exitDx=0;exitDy=0;exitPerimeter=0;" edge="1" parent="WC2uHMEfxPTT_iZBBeDT-1" source="WC2uHMEfxPTT_iZBBeDT-6" target="WC2uHMEfxPTT_iZBBeDT-7">
          <mxGeometry relative="1" as="geometry" />
        </mxCell>
        <mxCell id="WC2uHMEfxPTT_iZBBeDT-6" value="VFM Backend&amp;nbsp;" style="rounded=0;whiteSpace=wrap;html=1;fontSize=9;fillColor=#e1d5e7;strokeColor=#9673a6;" vertex="1" parent="WC2uHMEfxPTT_iZBBeDT-1">
          <mxGeometry x="310" y="255.5" width="70" height="130" as="geometry" />
        </mxCell>
        <mxCell id="WC2uHMEfxPTT_iZBBeDT-19" style="edgeStyle=orthogonalEdgeStyle;rounded=0;orthogonalLoop=1;jettySize=auto;html=1;exitX=0.021;exitY=0.757;exitDx=0;exitDy=0;exitPerimeter=0;fontSize=9;entryX=0.986;entryY=0.816;entryDx=0;entryDy=0;entryPerimeter=0;" edge="1" parent="WC2uHMEfxPTT_iZBBeDT-1" source="WC2uHMEfxPTT_iZBBeDT-7" target="WC2uHMEfxPTT_iZBBeDT-6">
          <mxGeometry relative="1" as="geometry">
            <mxPoint x="380" y="353" as="targetPoint" />
          </mxGeometry>
        </mxCell>
        <mxCell id="WC2uHMEfxPTT_iZBBeDT-7" value="DB" style="shape=cylinder3;whiteSpace=wrap;html=1;boundedLbl=1;backgroundOutline=1;size=15;fontSize=9;fillColor=#fff2cc;strokeColor=#d6b656;" vertex="1" parent="WC2uHMEfxPTT_iZBBeDT-1">
          <mxGeometry x="620" y="270.5" width="60" height="119.5" as="geometry" />
        </mxCell>
        <mxCell id="WC2uHMEfxPTT_iZBBeDT-17" style="edgeStyle=orthogonalEdgeStyle;rounded=0;orthogonalLoop=1;jettySize=auto;html=1;fontSize=9;" edge="1" parent="WC2uHMEfxPTT_iZBBeDT-1" source="WC2uHMEfxPTT_iZBBeDT-8" target="WC2uHMEfxPTT_iZBBeDT-6">
          <mxGeometry relative="1" as="geometry" />
        </mxCell>
        <mxCell id="WC2uHMEfxPTT_iZBBeDT-8" value="Jenkins" style="rounded=0;whiteSpace=wrap;html=1;fontSize=9;fillColor=#f8cecc;strokeColor=#b85450;" vertex="1" parent="WC2uHMEfxPTT_iZBBeDT-1">
          <mxGeometry x="190" y="450" width="80" height="80" as="geometry" />
        </mxCell>
        <mxCell id="WC2uHMEfxPTT_iZBBeDT-10" style="edgeStyle=orthogonalEdgeStyle;rounded=0;orthogonalLoop=1;jettySize=auto;html=1;exitX=1;exitY=0.25;exitDx=0;exitDy=0;entryX=0.006;entryY=0.218;entryDx=0;entryDy=0;entryPerimeter=0;dashed=1;fontSize=9;" edge="1" parent="WC2uHMEfxPTT_iZBBeDT-1" source="WC2uHMEfxPTT_iZBBeDT-2" target="WC2uHMEfxPTT_iZBBeDT-6">
          <mxGeometry relative="1" as="geometry" />
        </mxCell>
        <mxCell id="WC2uHMEfxPTT_iZBBeDT-11" value="" style="endArrow=classic;html=1;rounded=0;fontSize=9;exitX=1;exitY=0.25;exitDx=0;exitDy=0;entryX=0;entryY=0;entryDx=0;entryDy=15;entryPerimeter=0;" edge="1" parent="WC2uHMEfxPTT_iZBBeDT-1" source="WC2uHMEfxPTT_iZBBeDT-6" target="WC2uHMEfxPTT_iZBBeDT-7">
          <mxGeometry width="50" height="50" relative="1" as="geometry">
            <mxPoint x="390" y="410" as="sourcePoint" />
            <mxPoint x="440" y="360" as="targetPoint" />
          </mxGeometry>
        </mxCell>
        <mxCell id="WC2uHMEfxPTT_iZBBeDT-21" value="Give me an update&amp;nbsp;" style="text;html=1;strokeColor=none;fillColor=none;align=center;verticalAlign=middle;whiteSpace=wrap;rounded=0;fontSize=9;" vertex="1" parent="WC2uHMEfxPTT_iZBBeDT-1">
          <mxGeometry x="210" y="250" width="60" height="30" as="geometry" />
        </mxCell>
        <mxCell id="WC2uHMEfxPTT_iZBBeDT-22" value="Get latest value" style="text;html=1;strokeColor=none;fillColor=none;align=center;verticalAlign=middle;whiteSpace=wrap;rounded=0;fontSize=9;" vertex="1" parent="WC2uHMEfxPTT_iZBBeDT-1">
          <mxGeometry x="390" y="256" width="60" height="30" as="geometry" />
        </mxCell>
        <mxCell id="WC2uHMEfxPTT_iZBBeDT-25" value="" style="endArrow=classic;html=1;rounded=0;dashed=1;fontSize=9;entryX=0.994;entryY=0.368;entryDx=0;entryDy=0;entryPerimeter=0;" edge="1" parent="WC2uHMEfxPTT_iZBBeDT-1" target="WC2uHMEfxPTT_iZBBeDT-6">
          <mxGeometry width="50" height="50" relative="1" as="geometry">
            <mxPoint x="450" y="303" as="sourcePoint" />
            <mxPoint x="380" y="312.25" as="targetPoint" />
          </mxGeometry>
        </mxCell>
        <mxCell id="WC2uHMEfxPTT_iZBBeDT-27" value="Lets check Jenkins&amp;nbsp;" style="text;html=1;strokeColor=none;fillColor=none;align=center;verticalAlign=middle;whiteSpace=wrap;rounded=0;fontSize=9;" vertex="1" parent="WC2uHMEfxPTT_iZBBeDT-1">
          <mxGeometry x="400" y="290" width="60" height="30" as="geometry" />
        </mxCell>
        <mxCell id="WC2uHMEfxPTT_iZBBeDT-28" value="get test case id executing" style="text;html=1;strokeColor=none;fillColor=none;align=center;verticalAlign=middle;whiteSpace=wrap;rounded=0;fontSize=9;" vertex="1" parent="WC2uHMEfxPTT_iZBBeDT-1">
          <mxGeometry x="520" y="312.25" width="60" height="30" as="geometry" />
        </mxCell>
        <mxCell id="WC2uHMEfxPTT_iZBBeDT-29" value="test case ID&#39;s" style="text;html=1;strokeColor=none;fillColor=none;align=center;verticalAlign=middle;whiteSpace=wrap;rounded=0;fontSize=9;" vertex="1" parent="WC2uHMEfxPTT_iZBBeDT-1">
          <mxGeometry x="390" y="340.88" width="60" height="30" as="geometry" />
        </mxCell>
        <mxCell id="WC2uHMEfxPTT_iZBBeDT-31" value="get status" style="text;html=1;strokeColor=none;fillColor=none;align=center;verticalAlign=middle;whiteSpace=wrap;rounded=0;fontSize=9;" vertex="1" parent="WC2uHMEfxPTT_iZBBeDT-1">
          <mxGeometry x="230" y="330" width="60" height="30" as="geometry" />
        </mxCell>
        <mxCell id="WC2uHMEfxPTT_iZBBeDT-32" value="status" style="text;html=1;strokeColor=none;fillColor=none;align=center;verticalAlign=middle;whiteSpace=wrap;rounded=0;fontSize=9;" vertex="1" parent="WC2uHMEfxPTT_iZBBeDT-1">
          <mxGeometry x="290" y="460" width="60" height="30" as="geometry" />
        </mxCell>
        <mxCell id="WC2uHMEfxPTT_iZBBeDT-33" value="update in DB" style="text;html=1;strokeColor=none;fillColor=none;align=center;verticalAlign=middle;whiteSpace=wrap;rounded=0;fontSize=9;" vertex="1" parent="WC2uHMEfxPTT_iZBBeDT-1">
          <mxGeometry x="390" y="390" width="60" height="30" as="geometry" />
        </mxCell>
      </root>
    </mxGraphModel>
  </diagram>
</mxfile>
